<?xml version="1.0" encoding="UTF-8"?><svg id="Layer_2" xmlns="http://www.w3.org/2000/svg" viewBox="0 0 853.61 648.24"><defs><style>.cls-1,.cls-2{stroke:#f5922c;stroke-linecap:round;}.cls-1,.cls-2,.cls-3{fill:#f1e7e0;stroke-miterlimit:10;}.cls-1,.cls-3{stroke-width:27px;}.cls-2{stroke-width:17px;}.cls-3{stroke:#ce5757;}</style></defs><g id="Layer_1-2"><g><path class="cls-3" d="m554.78,405.61c0,126.54-121.17,229.13-270.64,229.13S13.5,532.15,13.5,405.61c0-15.73,1.1-31.25,5.44-45.94,12-40.61,43.65-88.73,84.43-141.69,35.5-46.1,161.36-146.99,180.77-146.99,24.1,0,172.6,124.51,212.38,187.7,20.94,33.26,26.06,31.8,41.71,67.86,10.7,24.64,16.54,51.27,16.54,79.06Z"/><line class="cls-1" x1="166.83" y1="242.84" x2="228.12" y2="165.51"/><line class="cls-1" x1="287.78" y1="257.7" x2="287.78" y2="173.15"/><line class="cls-1" x1="402.44" y1="235.91" x2="342.48" y2="167.82"/><g><path class="cls-3" d="m840.11,201.82c0,71.22-68.19,128.95-152.31,128.95s-152.31-57.73-152.31-128.95c0-8.86.62-17.59,3.06-25.86,6.75-22.86,24.57-49.94,47.52-79.74,19.98-25.94,90.81-82.72,101.73-82.72,13.56,0,97.14,70.07,119.53,105.64,11.79,18.72,14.66,17.9,23.48,38.19,6.02,13.87,9.31,28.86,9.31,44.49Z"/><line class="cls-2" x1="628.65" y1="110.34" x2="662.82" y2="66.57"/><line class="cls-2" x1="689.85" y1="118.58" x2="689.85" y2="70.99"/><line class="cls-2" x1="752.5" y1="108.41" x2="720.64" y2="68.5"/></g></g></g></svg>