<?xml version="1.0" encoding="UTF-8"?><svg id="Layer_2" xmlns="http://www.w3.org/2000/svg" viewBox="0 0 944.13 522.69"><defs><style>.cls-1{stroke:#f5922c;}.cls-1,.cls-2,.cls-3{stroke-linecap:round;stroke-miterlimit:10;stroke-width:27px;}.cls-1,.cls-3{fill:#f1e7e0;}.cls-2{fill:none;}.cls-2,.cls-3{stroke:#ce5757;}</style></defs><g id="Layer_1-2"><path class="cls-1" d="m264.46,357.04l-70.71,50.27c-21.73-6.31-51.14-18.87-67.88-46.19-26.22-42.82.79-85.8-26.55-112.34-27.8-26.98-84.29-10.28-85.79-20.43-1.01-6.82,25.1-10.19,42.89-32.68,12.51-15.81,15.77-34.57,16.34-49.02,45.69-2.68,69.95,9.94,83.74,22.47,30.81,27.98,21.41,66.38,51.06,120.51,17.49,31.91,40.01,53.7,56.89,67.42Z"/><ellipse class="cls-1" cx="823.52" cy="306.48" rx="107.11" ry="122.37"/><circle class="cls-1" cx="493.71" cy="68.26" r="54.76"/><path class="cls-3" d="m813.11,393.98c0,40.95-9.39,79.91-26.33,115.21H200.64c-16.94-35.3-26.33-74.26-26.33-115.21,0-159.8,143-289.34,319.4-289.34s319.4,129.54,319.4,289.34Z"/><line class="cls-2" x1="247.32" y1="209.07" x2="722.1" y2="209.07"/></g></svg>