<?xml version="1.0" encoding="UTF-8"?><svg id="Layer_2" xmlns="http://www.w3.org/2000/svg" viewBox="0 0 499.34 973.68"><defs><style>.cls-1{fill:#f4ce2f;}.cls-1,.cls-2,.cls-3,.cls-4,.cls-5,.cls-6,.cls-7{stroke:#a1493e;stroke-miterlimit:10;}.cls-1,.cls-3,.cls-4,.cls-5,.cls-6,.cls-7{stroke-width:20px;}.cls-2{stroke-width:18px;}.cls-2,.cls-3,.cls-4,.cls-6{stroke-linecap:round;}.cls-2,.cls-5,.cls-6{fill:none;}.cls-3{fill:#df1900;}.cls-4{fill:#ffee94;}.cls-7{fill:#ce5757;}.cls-8{fill:#db7d7d;}</style></defs><g id="Layer_1-2"><g><line class="cls-2" x1="243.61" y1="147.86" x2="243.61" y2="9"/><path class="cls-1" d="m199.34,90.95h89.06c15.49,0,28.06,12.57,28.06,28.06v33.5h-145.18v-33.5c0-15.49,12.57-28.06,28.06-28.06Z"/><path class="cls-1" d="m171.28,548.29h145.18v32.94c0,15.8-12.82,28.62-28.62,28.62h-87.94c-15.8,0-28.62-12.82-28.62-28.62v-32.94h0Z"/><path class="cls-7" d="m164.13,540.21C74.01,511.07,10,437.2,10,350.69s69.64-166.71,165.91-193.04c0,0-101.43,205.91-11.77,382.56Z"/><path class="cls-7" d="m489.34,350.69c0,94.84-76.93,174.5-180.86,196.67-18.82,4.03-38.51,6.16-58.8,6.16-30.14,0-58.98-4.71-85.54-13.31-89.66-176.65,11.77-382.56,11.77-382.56,23.24-6.35,48.03-9.79,73.77-9.79,23.9,0,46.98,2.96,68.76,8.47,98.85,25.01,170.91,102.56,170.91,194.36Z"/><path class="cls-8" d="m357.85,178.37c-11.67-6.24-92.98-25.73-102.79-19.81-73.82,44.53-87.69,105.21-87.69,192.98,0,66.75,5.48,152.95,62.14,188.67,22.06,13.91,84.69-.9,109.65-10.42,81.61-31.14,142.91-97.53,143.54-179.1.58-74.35-55.99-135.51-124.85-172.31Z"/><path class="cls-5" d="m316.45,152.5c118.3,227.13-7.98,394.85-7.98,394.85"/><line class="cls-6" x1="190.25" y1="614.39" x2="190.25" y2="693.54"/><line class="cls-6" x1="242.64" y1="615.15" x2="242.64" y2="752.89"/><line class="cls-6" x1="298.26" y1="615.15" x2="298.26" y2="693.54"/><circle class="cls-3" cx="239.87" cy="752.89" r="35.13"/><path class="cls-4" d="m243.37,799.66h3.28c21.32,0,38.63,17.31,38.63,38.63v125.38h-80.54v-125.38c0-21.32,17.31-38.63,38.63-38.63Z"/></g></g></svg>