<?xml version="1.0" encoding="UTF-8"?><svg id="Layer_2" xmlns="http://www.w3.org/2000/svg" viewBox="0 0 440.64 684.39"><defs><style>.cls-1{fill:#f1e7e0;stroke:#ce5757;stroke-linecap:round;stroke-miterlimit:10;stroke-width:27px;}</style></defs><g id="Layer_1-2"><path class="cls-1" d="m217.51,13.52C104.58,15.02,13.5,107.04,13.5,220.32c0,43.92,12.7,95.22,30.68,133.99l143.39,303.97c7.69,16.3,30.65,16.94,39.22,1.08l164.63-304.21c.33-.6.62-1.22.89-1.85,19.14-44.88,34.83-82.23,34.83-132.99,0-114.5-95.14-208.33-209.63-206.8Zm2.81,320.81c-55.57,0-100.62-45.05-100.62-100.62s45.05-100.62,100.62-100.62,100.62,45.05,100.62,100.62-45.05,100.62-100.62,100.62Z"/></g></svg>