<?xml version="1.0" encoding="UTF-8"?><svg id="Layer_2" xmlns="http://www.w3.org/2000/svg" viewBox="0 0 582.57 620.36"><defs><style>.cls-1{stroke:#f5922c;}.cls-1,.cls-2{fill:#f1e7e0;stroke-linecap:round;stroke-miterlimit:10;stroke-width:27px;}.cls-2{stroke:#ce5757;}</style></defs><g id="Layer_1-2"><g><path class="cls-1" d="m171.05,181.65c0-92.87,60.29-168.15,134.67-168.15s134.67,75.28,134.67,168.15c0,3.32-.08,6.62-.23,9.89H171.29c-.16-3.27-.23-6.57-.23-9.89Z"/><rect class="cls-2" x="171.05" y="558.86" width="224.68" height="48" rx="20.29" ry="20.29"/><path class="cls-2" d="m569.07,275.97c0,153.42-124.37,277.79-277.79,277.79S13.5,429.39,13.5,275.97c0-5.49.16-10.93.48-16.34h554.61c.32,5.41.48,10.85.48,16.34Z"/><path class="cls-1" d="m21.95,225.31c0-66.56,60.29-120.51,134.67-120.51s134.67,53.95,134.67,120.51c0,2.38-.08,4.74-.23,7.09H22.18c-.16-2.35-.23-4.71-.23-7.09Z"/><path class="cls-1" d="m317.53,225.31c0-66.56,53.95-120.51,120.51-120.51s120.51,53.95,120.51,120.51c0,2.38-.07,4.74-.21,7.09h-240.6c-.14-2.35-.21-4.71-.21-7.09Z"/></g></g></svg>