<?xml version="1.0" encoding="UTF-8"?><svg id="Layer_2" xmlns="http://www.w3.org/2000/svg" viewBox="0 0 875.52 750.09"><defs><style>.cls-1,.cls-2{stroke:#f5922c;}.cls-1,.cls-2,.cls-3,.cls-4{stroke-miterlimit:10;}.cls-1,.cls-2,.cls-4{stroke-linecap:round;}.cls-1,.cls-3,.cls-4{fill:#f1e7e0;stroke-width:27px;}.cls-2{fill:none;stroke-width:49px;}.cls-3,.cls-4{stroke:#ce5757;}</style></defs><g id="Layer_1-2"><path class="cls-3" d="m462.31,13.71l218.3,4.02c2.85,14.77-10.54,64-13.79,80.4-14.68,74.12-64.15,105.38-94.46,105.43-32.68.06-84.64-52-100.85-129.55-3.43-16.38-12.01-45.52-9.19-60.3Z"/><path class="cls-3" d="m855.72,736.59H283.56c-8.56-45.6-9.17-94.55.58-145.17,44.07-228.85,194.35-420.48,285.05-428.25,73.19-6.27,236.37,188.81,285.05,428.25,10.29,50.59,9.95,99.55,1.48,145.17Z"/><rect class="cls-4" x="13.5" y="493.85" width="400.62" height="242.74"/><rect class="cls-4" x="85.27" y="425.66" width="257.08" height="65.9"/><rect class="cls-1" x="23.99" y="344.76" width="379.64" height="77.62"/><line class="cls-2" x1="645.41" y1="174.67" x2="496.21" y2="172.84"/></g></svg>