<?xml version="1.0" encoding="UTF-8"?><svg id="Layer_2" xmlns="http://www.w3.org/2000/svg" xmlns:xlink="http://www.w3.org/1999/xlink" viewBox="0 0 1933.64 1083.67"><defs><style>.cls-1{fill:#df1900;}.cls-1,.cls-2,.cls-3,.cls-4,.cls-5,.cls-6,.cls-7{opacity:.39;}.cls-1,.cls-2,.cls-3,.cls-5,.cls-6,.cls-7{stroke:#a1493e;stroke-miterlimit:10;stroke-width:4px;}.cls-1,.cls-6,.cls-7{stroke-linecap:round;}.cls-2{fill:#f4ce2f;}.cls-3,.cls-8,.cls-6{fill:none;}.cls-4{fill:#db7d7d;}.cls-9{fill:url(#New_Pattern_2);}.cls-5{fill:#ce5757;}.cls-7{fill:#ffee94;}</style><pattern id="New_Pattern_2" x="0" y="0" width="375" height="489.73" patternTransform="translate(-5833.1 2060.15) scale(1.13)" patternUnits="userSpaceOnUse" viewBox="0 0 375 489.73"><g><rect class="cls-8" width="375" height="489.73"/><g><line class="cls-6" x1="373.52" y1="407.02" x2="373.52" y2="373.09"/><path class="cls-2" d="m355.85,393.12h35.47c0,8.3-6.74,15.04-15.04,15.04h-5.39c-8.3,0-15.04-6.74-15.04-15.04h0Z"/><path class="cls-5" d="m354.1,502.89c-22.02-7.12-37.66-25.17-37.66-46.31s17.01-40.73,40.54-47.17c0,0-24.78,50.31-2.88,93.48Z"/><path class="cls-5" d="m433.56,456.58c0,23.17-18.8,42.64-44.19,48.05-4.6.98-9.41,1.5-14.37,1.5-7.36,0-14.41-1.15-20.9-3.25-21.91-43.16,2.88-93.48,2.88-93.48,5.68-1.55,11.74-2.39,18.02-2.39,5.84,0,11.48.72,16.8,2.07,24.15,6.11,41.76,25.06,41.76,47.49Z"/><path class="cls-4" d="m401.43,414.48c-2.85-1.52-22.72-6.29-25.11-4.84-18.04,10.88-21.43,25.71-21.43,47.15,0,16.31,1.34,37.37,15.18,46.1,5.39,3.4,20.69-.22,26.79-2.55,19.94-7.61,34.92-23.83,35.07-43.76.14-18.17-13.68-33.11-30.51-42.1Z"/></g><g><line class="cls-6" x1="-1.48" y1="407.02" x2="-1.48" y2="373.09"/><path class="cls-2" d="m-19.15,393.12H16.32c0,8.3-6.74,15.04-15.04,15.04h-5.39c-8.3,0-15.04-6.74-15.04-15.04h0Z"/><path class="cls-5" d="m58.56,456.58c0,23.17-18.8,42.64-44.19,48.05-4.6.98-9.41,1.5-14.37,1.5-7.36,0-14.41-1.15-20.9-3.25-21.91-43.16,2.88-93.48,2.88-93.48,5.68-1.55,11.74-2.39,18.02-2.39,5.84,0,11.48.72,16.8,2.07,24.15,6.11,41.76,25.06,41.76,47.49Z"/><path class="cls-4" d="m26.43,414.48c-2.85-1.52-22.72-6.29-25.11-4.84-18.04,10.88-21.43,25.71-21.43,47.15,0,16.31,1.34,37.37,15.18,46.1,5.39,3.4,20.69-.22,26.79-2.55,19.94-7.61,34.92-23.83,35.07-43.76.14-18.17-13.68-33.11-30.51-42.1Z"/><path class="cls-3" d="m16.32,408.16c28.91,55.5-1.95,96.48-1.95,96.48"/></g><g><path class="cls-2" d="m370.89,15.14h5.39c8.3,0,15.04,6.74,15.04,15.04h-35.47c0-8.3,6.74-15.04,15.04-15.04Z"/><path class="cls-5" d="m354.1,13.16c-22.02-7.12-37.66-25.17-37.66-46.31s17.01-40.73,40.54-47.17c0,0-24.78,50.31-2.88,93.48Z"/><path class="cls-5" d="m433.56-33.15c0,23.17-18.8,42.64-44.19,48.05-4.6.98-9.41,1.5-14.37,1.5-7.36,0-14.41-1.15-20.9-3.25-21.91-43.16,2.88-93.48,2.88-93.48,5.68-1.55,11.74-2.39,18.02-2.39,5.84,0,11.48.72,16.8,2.07,24.15,6.11,41.76,25.06,41.76,47.49Z"/><path class="cls-4" d="m401.43-75.25c-2.85-1.52-22.72-6.29-25.11-4.84-18.04,10.88-21.43,25.71-21.43,47.15,0,16.31,1.34,37.37,15.18,46.1,5.39,3.4,20.69-.22,26.79-2.55,19.94-7.61,34.92-23.83,35.07-43.76.14-18.17-13.68-33.11-30.51-42.1Z"/><line class="cls-6" x1="360.48" y1="31.29" x2="360.48" y2="50.63"/><line class="cls-6" x1="373.28" y1="31.47" x2="373.28" y2="65.13"/><circle class="cls-1" cx="372.61" cy="65.13" r="8.58"/><path class="cls-7" d="m364.02,76.56h19.68v30.24c0,5.43-4.41,9.84-9.84,9.84h0c-5.43,0-9.84-4.41-9.84-9.84v-30.24h0Z"/></g><g><line class="cls-6" x1="186.02" y1="162.16" x2="186.02" y2="128.23"/><path class="cls-2" d="m168.35,148.25h35.47c0,8.3-6.74,15.04-15.04,15.04h-5.39c-8.3,0-15.04-6.74-15.04-15.04h0Z"/><path class="cls-2" d="m183.39,260h5.39c8.3,0,15.04,6.74,15.04,15.04h-35.47c0-8.3,6.74-15.04,15.04-15.04Z"/><path class="cls-5" d="m166.6,258.03c-22.02-7.12-37.66-25.17-37.66-46.31s17.01-40.73,40.54-47.17c0,0-24.78,50.31-2.88,93.48Z"/><path class="cls-5" d="m246.06,211.72c0,23.17-18.8,42.64-44.19,48.05-4.6.98-9.41,1.5-14.37,1.5-7.36,0-14.41-1.15-20.9-3.25-21.91-43.16,2.88-93.48,2.88-93.48,5.68-1.55,11.74-2.39,18.02-2.39,5.84,0,11.48.72,16.8,2.07,24.15,6.11,41.76,25.06,41.76,47.49Z"/><path class="cls-4" d="m213.93,169.61c-2.85-1.52-22.72-6.29-25.11-4.84-18.04,10.88-21.43,25.71-21.43,47.15,0,16.31,1.34,37.37,15.18,46.1,5.39,3.4,20.69-.22,26.79-2.55,19.94-7.61,34.92-23.83,35.07-43.76.14-18.17-13.68-33.11-30.51-42.1Z"/><path class="cls-3" d="m203.82,163.29c28.91,55.5-1.95,96.48-1.95,96.48"/><line class="cls-6" x1="172.98" y1="276.15" x2="172.98" y2="295.49"/><line class="cls-6" x1="185.78" y1="276.34" x2="185.78" y2="309.99"/><line class="cls-6" x1="199.37" y1="276.34" x2="199.37" y2="295.49"/><circle class="cls-1" cx="185.11" cy="309.99" r="8.58"/><path class="cls-7" d="m176.52,321.42h19.68v30.24c0,5.43-4.41,9.84-9.84,9.84h0c-5.43,0-9.84-4.41-9.84-9.84v-30.24h0Z"/></g><g><path class="cls-2" d="m-4.11,15.14H1.28c8.3,0,15.04,6.74,15.04,15.04H-19.15c0-8.3,6.74-15.04,15.04-15.04Z"/><path class="cls-5" d="m58.56-33.15c0,23.17-18.8,42.64-44.19,48.05C9.77,15.89,4.96,16.41,0,16.41c-7.36,0-14.41-1.15-20.9-3.25-21.91-43.16,2.88-93.48,2.88-93.48,5.68-1.55,11.74-2.39,18.02-2.39,5.84,0,11.48.72,16.8,2.07,24.15,6.11,41.76,25.06,41.76,47.49Z"/><path class="cls-4" d="m26.43-75.25c-2.85-1.52-22.72-6.29-25.11-4.84-18.04,10.88-21.43,25.71-21.43,47.15,0,16.31,1.34,37.37,15.18,46.1,5.39,3.4,20.69-.22,26.79-2.55C41.81,3.01,56.78-13.22,56.94-33.15c.14-18.17-13.68-33.11-30.51-42.1Z"/><path class="cls-3" d="m16.32-81.57c28.91,55.5-1.95,96.48-1.95,96.48"/><line class="cls-6" x1="-1.72" y1="31.47" x2="-1.72" y2="65.13"/><line class="cls-6" x1="11.87" y1="31.47" x2="11.87" y2="50.63"/><circle class="cls-1" cx="-2.39" cy="65.13" r="8.58"/><path class="cls-7" d="m-10.98,76.56H8.7v30.24c0,5.43-4.41,9.84-9.84,9.84h0c-5.43,0-9.84-4.41-9.84-9.84v-30.24h0Z"/></g></g></pattern></defs><g id="Layer_1-2"><rect class="cls-9" x="0" width="1933.64" height="1083.67"/></g></svg>